<svg xmlns="http://www.w3.org/2000/svg" width="1280" height="546" style="cursor: move;"><g transform="translate(360.81334774341383,205.63590614482501) scale(0.5556601831808673)"><path class="link" marker-end="url(#arrow)" d="M329.3333333333333,31C456.83333333333326,31 456.83333333333326,199 584.3333333333333,199" style="stroke-width: 0.48; stroke-opacity: 0.77; stroke: rgb(0, 0, 0); fill: none;"></path><path class="link" marker-end="url(#arrow)" d="M329.3333333333333,31C456.83333333333326,31 456.83333333333326,241 584.3333333333333,241" style="stroke-width: 0.48; stroke-opacity: 0.77; stroke: rgb(0, 0, 0); fill: none;"></path><path class="link" marker-end="url(#arrow)" d="M329.3333333333333,31C456.83333333333326,31 456.83333333333326,283 584.3333333333333,283" style="stroke-width: 0.48; stroke-opacity: 0.77; stroke: rgb(0, 0, 0); fill: none;"></path><path class="link" marker-end="url(#arrow)" d="M329.3333333333333,31C456.83333333333326,31 456.83333333333326,325 584.3333333333333,325" style="stroke-width: 0.48; stroke-opacity: 0.77; stroke: rgb(0, 0, 0); fill: none;"></path><path class="link" marker-end="url(#arrow)" d="M329.3333333333333,31C456.83333333333326,31 456.83333333333326,367 584.3333333333333,367" style="stroke-width: 0.48; stroke-opacity: 0.77; stroke: rgb(0, 0, 0); fill: none;"></path><path class="link" marker-end="url(#arrow)" d="M329.3333333333333,73C456.83333333333326,73 456.83333333333326,199 584.3333333333333,199" style="stroke-width: 0.48; stroke-opacity: 0.77; stroke: rgb(0, 0, 0); fill: none;"></path><path class="link" marker-end="url(#arrow)" d="M329.3333333333333,73C456.83333333333326,73 456.83333333333326,241 584.3333333333333,241" style="stroke-width: 0.48; stroke-opacity: 0.77; stroke: rgb(0, 0, 0); fill: none;"></path><path class="link" marker-end="url(#arrow)" d="M329.3333333333333,73C456.83333333333326,73 456.83333333333326,283 584.3333333333333,283" style="stroke-width: 0.48; stroke-opacity: 0.77; stroke: rgb(0, 0, 0); fill: none;"></path><path class="link" marker-end="url(#arrow)" d="M329.3333333333333,73C456.83333333333326,73 456.83333333333326,325 584.3333333333333,325" style="stroke-width: 0.48; stroke-opacity: 0.77; stroke: rgb(0, 0, 0); fill: none;"></path><path class="link" marker-end="url(#arrow)" d="M329.3333333333333,73C456.83333333333326,73 456.83333333333326,367 584.3333333333333,367" style="stroke-width: 0.48; stroke-opacity: 0.77; stroke: rgb(0, 0, 0); fill: none;"></path><path class="link" marker-end="url(#arrow)" d="M329.3333333333333,115C456.83333333333326,115 456.83333333333326,199 584.3333333333333,199" style="stroke-width: 0.48; stroke-opacity: 0.77; stroke: rgb(0, 0, 0); fill: none;"></path><path class="link" marker-end="url(#arrow)" d="M329.3333333333333,115C456.83333333333326,115 456.83333333333326,241 584.3333333333333,241" style="stroke-width: 0.48; stroke-opacity: 0.77; stroke: rgb(0, 0, 0); fill: none;"></path><path class="link" marker-end="url(#arrow)" d="M329.3333333333333,115C456.83333333333326,115 456.83333333333326,283 584.3333333333333,283" style="stroke-width: 0.48; stroke-opacity: 0.77; stroke: rgb(0, 0, 0); fill: none;"></path><path class="link" marker-end="url(#arrow)" d="M329.3333333333333,115C456.83333333333326,115 456.83333333333326,325 584.3333333333333,325" style="stroke-width: 0.48; stroke-opacity: 0.77; stroke: rgb(0, 0, 0); fill: none;"></path><path class="link" marker-end="url(#arrow)" d="M329.3333333333333,115C456.83333333333326,115 456.83333333333326,367 584.3333333333333,367" style="stroke-width: 0.48; stroke-opacity: 0.77; stroke: rgb(0, 0, 0); fill: none;"></path><path class="link" marker-end="url(#arrow)" d="M329.3333333333333,157C456.83333333333326,157 456.83333333333326,199 584.3333333333333,199" style="stroke-width: 0.48; stroke-opacity: 0.77; stroke: rgb(0, 0, 0); fill: none;"></path><path class="link" marker-end="url(#arrow)" d="M329.3333333333333,157C456.83333333333326,157 456.83333333333326,241 584.3333333333333,241" style="stroke-width: 0.48; stroke-opacity: 0.77; stroke: rgb(0, 0, 0); fill: none;"></path><path class="link" marker-end="url(#arrow)" d="M329.3333333333333,157C456.83333333333326,157 456.83333333333326,283 584.3333333333333,283" style="stroke-width: 0.48; stroke-opacity: 0.77; stroke: rgb(0, 0, 0); fill: none;"></path><path class="link" marker-end="url(#arrow)" d="M329.3333333333333,157C456.83333333333326,157 456.83333333333326,325 584.3333333333333,325" style="stroke-width: 0.48; stroke-opacity: 0.77; stroke: rgb(0, 0, 0); fill: none;"></path><path class="link" marker-end="url(#arrow)" d="M329.3333333333333,157C456.83333333333326,157 456.83333333333326,367 584.3333333333333,367" style="stroke-width: 0.48; stroke-opacity: 0.77; stroke: rgb(0, 0, 0); fill: none;"></path><path class="link" marker-end="url(#arrow)" d="M329.3333333333333,199C456.83333333333326,199 456.83333333333326,199 584.3333333333333,199" style="stroke-width: 0.48; stroke-opacity: 0.77; stroke: rgb(0, 0, 0); fill: none;"></path><path class="link" marker-end="url(#arrow)" d="M329.3333333333333,199C456.83333333333326,199 456.83333333333326,241 584.3333333333333,241" style="stroke-width: 0.48; stroke-opacity: 0.77; stroke: rgb(0, 0, 0); fill: none;"></path><path class="link" marker-end="url(#arrow)" d="M329.3333333333333,199C456.83333333333326,199 456.83333333333326,283 584.3333333333333,283" style="stroke-width: 0.48; stroke-opacity: 0.77; stroke: rgb(0, 0, 0); fill: none;"></path><path class="link" marker-end="url(#arrow)" d="M329.3333333333333,199C456.83333333333326,199 456.83333333333326,325 584.3333333333333,325" style="stroke-width: 0.48; stroke-opacity: 0.77; stroke: rgb(0, 0, 0); fill: none;"></path><path class="link" marker-end="url(#arrow)" d="M329.3333333333333,199C456.83333333333326,199 456.83333333333326,367 584.3333333333333,367" style="stroke-width: 0.48; stroke-opacity: 0.77; stroke: rgb(0, 0, 0); fill: none;"></path><path class="link" marker-end="url(#arrow)" d="M329.3333333333333,241C456.83333333333326,241 456.83333333333326,199 584.3333333333333,199" style="stroke-width: 0.48; stroke-opacity: 0.77; stroke: rgb(0, 0, 0); fill: none;"></path><path class="link" marker-end="url(#arrow)" d="M329.3333333333333,241C456.83333333333326,241 456.83333333333326,241 584.3333333333333,241" style="stroke-width: 0.48; stroke-opacity: 0.77; stroke: rgb(0, 0, 0); fill: none;"></path><path class="link" marker-end="url(#arrow)" d="M329.3333333333333,241C456.83333333333326,241 456.83333333333326,283 584.3333333333333,283" style="stroke-width: 0.48; stroke-opacity: 0.77; stroke: rgb(0, 0, 0); fill: none;"></path><path class="link" marker-end="url(#arrow)" d="M329.3333333333333,241C456.83333333333326,241 456.83333333333326,325 584.3333333333333,325" style="stroke-width: 0.48; stroke-opacity: 0.77; stroke: rgb(0, 0, 0); fill: none;"></path><path class="link" marker-end="url(#arrow)" d="M329.3333333333333,241C456.83333333333326,241 456.83333333333326,367 584.3333333333333,367" style="stroke-width: 0.48; stroke-opacity: 0.77; stroke: rgb(0, 0, 0); fill: none;"></path><path class="link" marker-end="url(#arrow)" d="M329.3333333333333,283C456.83333333333326,283 456.83333333333326,199 584.3333333333333,199" style="stroke-width: 0.48; stroke-opacity: 0.77; stroke: rgb(0, 0, 0); fill: none;"></path><path class="link" marker-end="url(#arrow)" d="M329.3333333333333,283C456.83333333333326,283 456.83333333333326,241 584.3333333333333,241" style="stroke-width: 0.48; stroke-opacity: 0.77; stroke: rgb(0, 0, 0); fill: none;"></path><path class="link" marker-end="url(#arrow)" d="M329.3333333333333,283C456.83333333333326,283 456.83333333333326,283 584.3333333333333,283" style="stroke-width: 0.48; stroke-opacity: 0.77; stroke: rgb(0, 0, 0); fill: none;"></path><path class="link" marker-end="url(#arrow)" d="M329.3333333333333,283C456.83333333333326,283 456.83333333333326,325 584.3333333333333,325" style="stroke-width: 0.48; stroke-opacity: 0.77; stroke: rgb(0, 0, 0); fill: none;"></path><path class="link" marker-end="url(#arrow)" d="M329.3333333333333,283C456.83333333333326,283 456.83333333333326,367 584.3333333333333,367" style="stroke-width: 0.48; stroke-opacity: 0.77; stroke: rgb(0, 0, 0); fill: none;"></path><path class="link" marker-end="url(#arrow)" d="M329.3333333333333,325C456.83333333333326,325 456.83333333333326,199 584.3333333333333,199" style="stroke-width: 0.48; stroke-opacity: 0.77; stroke: rgb(0, 0, 0); fill: none;"></path><path class="link" marker-end="url(#arrow)" d="M329.3333333333333,325C456.83333333333326,325 456.83333333333326,241 584.3333333333333,241" style="stroke-width: 0.48; stroke-opacity: 0.77; stroke: rgb(0, 0, 0); fill: none;"></path><path class="link" marker-end="url(#arrow)" d="M329.3333333333333,325C456.83333333333326,325 456.83333333333326,283 584.3333333333333,283" style="stroke-width: 0.48; stroke-opacity: 0.77; stroke: rgb(0, 0, 0); fill: none;"></path><path class="link" marker-end="url(#arrow)" d="M329.3333333333333,325C456.83333333333326,325 456.83333333333326,325 584.3333333333333,325" style="stroke-width: 0.48; stroke-opacity: 0.77; stroke: rgb(0, 0, 0); fill: none;"></path><path class="link" marker-end="url(#arrow)" d="M329.3333333333333,325C456.83333333333326,325 456.83333333333326,367 584.3333333333333,367" style="stroke-width: 0.48; stroke-opacity: 0.77; stroke: rgb(0, 0, 0); fill: none;"></path><path class="link" marker-end="url(#arrow)" d="M329.3333333333333,367C456.83333333333326,367 456.83333333333326,199 584.3333333333333,199" style="stroke-width: 0.48; stroke-opacity: 0.77; stroke: rgb(0, 0, 0); fill: none;"></path><path class="link" marker-end="url(#arrow)" d="M329.3333333333333,367C456.83333333333326,367 456.83333333333326,241 584.3333333333333,241" style="stroke-width: 0.48; stroke-opacity: 0.77; stroke: rgb(0, 0, 0); fill: none;"></path><path class="link" marker-end="url(#arrow)" d="M329.3333333333333,367C456.83333333333326,367 456.83333333333326,283 584.3333333333333,283" style="stroke-width: 0.48; stroke-opacity: 0.77; stroke: rgb(0, 0, 0); fill: none;"></path><path class="link" marker-end="url(#arrow)" d="M329.3333333333333,367C456.83333333333326,367 456.83333333333326,325 584.3333333333333,325" style="stroke-width: 0.48; stroke-opacity: 0.77; stroke: rgb(0, 0, 0); fill: none;"></path><path class="link" marker-end="url(#arrow)" d="M329.3333333333333,367C456.83333333333326,367 456.83333333333326,367 584.3333333333333,367" style="stroke-width: 0.48; stroke-opacity: 0.77; stroke: rgb(0, 0, 0); fill: none;"></path><path class="link" marker-end="url(#arrow)" d="M329.3333333333333,409C456.83333333333326,409 456.83333333333326,199 584.3333333333333,199" style="stroke-width: 0.48; stroke-opacity: 0.77; stroke: rgb(0, 0, 0); fill: none;"></path><path class="link" marker-end="url(#arrow)" d="M329.3333333333333,409C456.83333333333326,409 456.83333333333326,241 584.3333333333333,241" style="stroke-width: 0.48; stroke-opacity: 0.77; stroke: rgb(0, 0, 0); fill: none;"></path><path class="link" marker-end="url(#arrow)" d="M329.3333333333333,409C456.83333333333326,409 456.83333333333326,283 584.3333333333333,283" style="stroke-width: 0.48; stroke-opacity: 0.77; stroke: rgb(0, 0, 0); fill: none;"></path><path class="link" marker-end="url(#arrow)" d="M329.3333333333333,409C456.83333333333326,409 456.83333333333326,325 584.3333333333333,325" style="stroke-width: 0.48; stroke-opacity: 0.77; stroke: rgb(0, 0, 0); fill: none;"></path><path class="link" marker-end="url(#arrow)" d="M329.3333333333333,409C456.83333333333326,409 456.83333333333326,367 584.3333333333333,367" style="stroke-width: 0.48; stroke-opacity: 0.77; stroke: rgb(0, 0, 0); fill: none;"></path><path class="link" marker-end="url(#arrow)" d="M329.3333333333333,451C456.83333333333326,451 456.83333333333326,199 584.3333333333333,199" style="stroke-width: 0.48; stroke-opacity: 0.77; stroke: rgb(0, 0, 0); fill: none;"></path><path class="link" marker-end="url(#arrow)" d="M329.3333333333333,451C456.83333333333326,451 456.83333333333326,241 584.3333333333333,241" style="stroke-width: 0.48; stroke-opacity: 0.77; stroke: rgb(0, 0, 0); fill: none;"></path><path class="link" marker-end="url(#arrow)" d="M329.3333333333333,451C456.83333333333326,451 456.83333333333326,283 584.3333333333333,283" style="stroke-width: 0.48; stroke-opacity: 0.77; stroke: rgb(0, 0, 0); fill: none;"></path><path class="link" marker-end="url(#arrow)" d="M329.3333333333333,451C456.83333333333326,451 456.83333333333326,325 584.3333333333333,325" style="stroke-width: 0.48; stroke-opacity: 0.77; stroke: rgb(0, 0, 0); fill: none;"></path><path class="link" marker-end="url(#arrow)" d="M329.3333333333333,451C456.83333333333326,451 456.83333333333326,367 584.3333333333333,367" style="stroke-width: 0.48; stroke-opacity: 0.77; stroke: rgb(0, 0, 0); fill: none;"></path><path class="link" marker-end="url(#arrow)" d="M329.3333333333333,493C456.83333333333326,493 456.83333333333326,199 584.3333333333333,199" style="stroke-width: 0.48; stroke-opacity: 0.77; stroke: rgb(0, 0, 0); fill: none;"></path><path class="link" marker-end="url(#arrow)" d="M329.3333333333333,493C456.83333333333326,493 456.83333333333326,241 584.3333333333333,241" style="stroke-width: 0.48; stroke-opacity: 0.77; stroke: rgb(0, 0, 0); fill: none;"></path><path class="link" marker-end="url(#arrow)" d="M329.3333333333333,493C456.83333333333326,493 456.83333333333326,283 584.3333333333333,283" style="stroke-width: 0.48; stroke-opacity: 0.77; stroke: rgb(0, 0, 0); fill: none;"></path><path class="link" marker-end="url(#arrow)" d="M329.3333333333333,493C456.83333333333326,493 456.83333333333326,325 584.3333333333333,325" style="stroke-width: 0.48; stroke-opacity: 0.77; stroke: rgb(0, 0, 0); fill: none;"></path><path class="link" marker-end="url(#arrow)" d="M329.3333333333333,493C456.83333333333326,493 456.83333333333326,367 584.3333333333333,367" style="stroke-width: 0.48; stroke-opacity: 0.77; stroke: rgb(0, 0, 0); fill: none;"></path><path class="link" marker-end="url(#arrow)" d="M584.3333333333333,157C711.8333333333333,157 711.8333333333333,262 839.3333333333333,262" style="stroke-width: 0.48; stroke-opacity: 0.77; stroke: rgb(0, 0, 0); fill: none;"></path><path class="link" marker-end="url(#arrow)" d="M584.3333333333333,157C711.8333333333333,157 711.8333333333333,304 839.3333333333333,304" style="stroke-width: 0.48; stroke-opacity: 0.77; stroke: rgb(0, 0, 0); fill: none;"></path><path class="link" marker-end="url(#arrow)" d="M584.3333333333333,199C711.8333333333333,199 711.8333333333333,262 839.3333333333333,262" style="stroke-width: 0.48; stroke-opacity: 0.77; stroke: rgb(0, 0, 0); fill: none;"></path><path class="link" marker-end="url(#arrow)" d="M584.3333333333333,199C711.8333333333333,199 711.8333333333333,304 839.3333333333333,304" style="stroke-width: 0.48; stroke-opacity: 0.77; stroke: rgb(0, 0, 0); fill: none;"></path><path class="link" marker-end="url(#arrow)" d="M584.3333333333333,241C711.8333333333333,241 711.8333333333333,262 839.3333333333333,262" style="stroke-width: 0.48; stroke-opacity: 0.77; stroke: rgb(0, 0, 0); fill: none;"></path><path class="link" marker-end="url(#arrow)" d="M584.3333333333333,241C711.8333333333333,241 711.8333333333333,304 839.3333333333333,304" style="stroke-width: 0.48; stroke-opacity: 0.77; stroke: rgb(0, 0, 0); fill: none;"></path><path class="link" marker-end="url(#arrow)" d="M584.3333333333333,283C711.8333333333333,283 711.8333333333333,262 839.3333333333333,262" style="stroke-width: 0.48; stroke-opacity: 0.77; stroke: rgb(0, 0, 0); fill: none;"></path><path class="link" marker-end="url(#arrow)" d="M584.3333333333333,283C711.8333333333333,283 711.8333333333333,304 839.3333333333333,304" style="stroke-width: 0.48; stroke-opacity: 0.77; stroke: rgb(0, 0, 0); fill: none;"></path><path class="link" marker-end="url(#arrow)" d="M584.3333333333333,325C711.8333333333333,325 711.8333333333333,262 839.3333333333333,262" style="stroke-width: 0.48; stroke-opacity: 0.77; stroke: rgb(0, 0, 0); fill: none;"></path><path class="link" marker-end="url(#arrow)" d="M584.3333333333333,325C711.8333333333333,325 711.8333333333333,304 839.3333333333333,304" style="stroke-width: 0.48; stroke-opacity: 0.77; stroke: rgb(0, 0, 0); fill: none;"></path><path class="link" marker-end="url(#arrow)" d="M584.3333333333333,367C711.8333333333333,367 711.8333333333333,262 839.3333333333333,262" style="stroke-width: 0.48; stroke-opacity: 0.77; stroke: rgb(0, 0, 0); fill: none;"></path><path class="link" marker-end="url(#arrow)" d="M584.3333333333333,367C711.8333333333333,367 711.8333333333333,304 839.3333333333333,304" style="stroke-width: 0.48; stroke-opacity: 0.77; stroke: rgb(0, 0, 0); fill: none;"></path><path class="link" marker-end="url(#arrow)" d="M329.3333333333333,31C456.83333333333326,31 456.83333333333326,157 584.3333333333333,157" style="stroke-width: 0.48; stroke-opacity: 0.77; stroke: rgb(0, 0, 0); fill: none;"></path><path class="link" marker-end="url(#arrow)" d="M329.3333333333333,73C456.83333333333326,73 456.83333333333326,157 584.3333333333333,157" style="stroke-width: 0.48; stroke-opacity: 0.77; stroke: rgb(0, 0, 0); fill: none;"></path><path class="link" marker-end="url(#arrow)" d="M329.3333333333333,115C456.83333333333326,115 456.83333333333326,157 584.3333333333333,157" style="stroke-width: 0.48; stroke-opacity: 0.77; stroke: rgb(0, 0, 0); fill: none;"></path><path class="link" marker-end="url(#arrow)" d="M329.3333333333333,157C456.83333333333326,157 456.83333333333326,157 584.3333333333333,157" style="stroke-width: 0.48; stroke-opacity: 0.77; stroke: rgb(0, 0, 0); fill: none;"></path><path class="link" marker-end="url(#arrow)" d="M329.3333333333333,199C456.83333333333326,199 456.83333333333326,157 584.3333333333333,157" style="stroke-width: 0.48; stroke-opacity: 0.77; stroke: rgb(0, 0, 0); fill: none;"></path><path class="link" marker-end="url(#arrow)" d="M329.3333333333333,241C456.83333333333326,241 456.83333333333326,157 584.3333333333333,157" style="stroke-width: 0.48; stroke-opacity: 0.77; stroke: rgb(0, 0, 0); fill: none;"></path><path class="link" marker-end="url(#arrow)" d="M329.3333333333333,283C456.83333333333326,283 456.83333333333326,157 584.3333333333333,157" style="stroke-width: 0.48; stroke-opacity: 0.77; stroke: rgb(0, 0, 0); fill: none;"></path><path class="link" marker-end="url(#arrow)" d="M329.3333333333333,325C456.83333333333326,325 456.83333333333326,157 584.3333333333333,157" style="stroke-width: 0.48; stroke-opacity: 0.77; stroke: rgb(0, 0, 0); fill: none;"></path><path class="link" marker-end="url(#arrow)" d="M329.3333333333333,367C456.83333333333326,367 456.83333333333326,157 584.3333333333333,157" style="stroke-width: 0.48; stroke-opacity: 0.77; stroke: rgb(0, 0, 0); fill: none;"></path><path class="link" marker-end="url(#arrow)" d="M329.3333333333333,409C456.83333333333326,409 456.83333333333326,157 584.3333333333333,157" style="stroke-width: 0.48; stroke-opacity: 0.77; stroke: rgb(0, 0, 0); fill: none;"></path><path class="link" marker-end="url(#arrow)" d="M329.3333333333333,451C456.83333333333326,451 456.83333333333326,157 584.3333333333333,157" style="stroke-width: 0.48; stroke-opacity: 0.77; stroke: rgb(0, 0, 0); fill: none;"></path><path class="link" marker-end="url(#arrow)" d="M329.3333333333333,493C456.83333333333326,493 456.83333333333326,157 584.3333333333333,157" style="stroke-width: 0.48; stroke-opacity: 0.77; stroke: rgb(0, 0, 0); fill: none;"></path><path class="link" marker-end="url(#arrow)" d="M584.3333333333333,157C711.8333333333333,157 711.8333333333333,220 839.3333333333333,220" style="stroke-width: 0.48; stroke-opacity: 0.77; stroke: rgb(0, 0, 0); fill: none;"></path><path class="link" marker-end="url(#arrow)" d="M584.3333333333333,199C711.8333333333333,199 711.8333333333333,220 839.3333333333333,220" style="stroke-width: 0.48; stroke-opacity: 0.77; stroke: rgb(0, 0, 0); fill: none;"></path><path class="link" marker-end="url(#arrow)" d="M584.3333333333333,241C711.8333333333333,241 711.8333333333333,220 839.3333333333333,220" style="stroke-width: 0.48; stroke-opacity: 0.77; stroke: rgb(0, 0, 0); fill: none;"></path><path class="link" marker-end="url(#arrow)" d="M584.3333333333333,283C711.8333333333333,283 711.8333333333333,220 839.3333333333333,220" style="stroke-width: 0.48; stroke-opacity: 0.77; stroke: rgb(0, 0, 0); fill: none;"></path><path class="link" marker-end="url(#arrow)" d="M584.3333333333333,325C711.8333333333333,325 711.8333333333333,220 839.3333333333333,220" style="stroke-width: 0.48; stroke-opacity: 0.77; stroke: rgb(0, 0, 0); fill: none;"></path><path class="link" marker-end="url(#arrow)" d="M584.3333333333333,367C711.8333333333333,367 711.8333333333333,220 839.3333333333333,220" style="stroke-width: 0.48; stroke-opacity: 0.77; stroke: rgb(0, 0, 0); fill: none;"></path><path class="link" marker-end="url(#arrow)" d="M839.3333333333333,220C966.8333333333333,220 966.8333333333333,262 1094.3333333333333,262" style="stroke-width: 0.48; stroke-opacity: 0.77; stroke: rgb(0, 0, 0); fill: none;"></path><path class="link" marker-end="url(#arrow)" d="M839.3333333333333,262C966.8333333333333,262 966.8333333333333,262 1094.3333333333333,262" style="stroke-width: 0.48; stroke-opacity: 0.77; stroke: rgb(0, 0, 0); fill: none;"></path><path class="link" marker-end="url(#arrow)" d="M839.3333333333333,304C966.8333333333333,304 966.8333333333333,262 1094.3333333333333,262" style="stroke-width: 0.48; stroke-opacity: 0.77; stroke: rgb(0, 0, 0); fill: none;"></path><circle r="11" class="node" id="0_0" cx="329.3333333333333" cy="31" style="fill: rgb(255, 255, 255); stroke: rgb(0, 0, 0);"></circle><circle r="11" class="node" id="0_1" cx="329.3333333333333" cy="73" style="fill: rgb(255, 255, 255); stroke: rgb(0, 0, 0);"></circle><circle r="11" class="node" id="0_2" cx="329.3333333333333" cy="115" style="fill: rgb(255, 255, 255); stroke: rgb(0, 0, 0);"></circle><circle r="11" class="node" id="0_3" cx="329.3333333333333" cy="157" style="fill: rgb(255, 255, 255); stroke: rgb(0, 0, 0);"></circle><circle r="11" class="node" id="0_4" cx="329.3333333333333" cy="199" style="fill: rgb(255, 255, 255); stroke: rgb(0, 0, 0);"></circle><circle r="11" class="node" id="0_5" cx="329.3333333333333" cy="241" style="fill: rgb(255, 255, 255); stroke: rgb(0, 0, 0);"></circle><circle r="11" class="node" id="0_6" cx="329.3333333333333" cy="283" style="fill: rgb(255, 255, 255); stroke: rgb(0, 0, 0);"></circle><circle r="11" class="node" id="0_7" cx="329.3333333333333" cy="325" style="fill: rgb(255, 255, 255); stroke: rgb(0, 0, 0);"></circle><circle r="11" class="node" id="0_8" cx="329.3333333333333" cy="367" style="fill: rgb(255, 255, 255); stroke: rgb(0, 0, 0);"></circle><circle r="11" class="node" id="0_9" cx="329.3333333333333" cy="409" style="fill: rgb(255, 255, 255); stroke: rgb(0, 0, 0);"></circle><circle r="11" class="node" id="0_10" cx="329.3333333333333" cy="451" style="fill: rgb(255, 255, 255); stroke: rgb(0, 0, 0);"></circle><circle r="11" class="node" id="0_11" cx="329.3333333333333" cy="493" style="fill: rgb(255, 255, 255); stroke: rgb(0, 0, 0);"></circle><circle r="11" class="node" id="1_0" cx="584.3333333333333" cy="157" style="fill: rgb(255, 255, 255); stroke: rgb(0, 0, 0);"></circle><circle r="11" class="node" id="1_1" cx="584.3333333333333" cy="199" style="fill: rgb(255, 255, 255); stroke: rgb(0, 0, 0);"></circle><circle r="11" class="node" id="1_2" cx="584.3333333333333" cy="241" style="fill: rgb(255, 255, 255); stroke: rgb(0, 0, 0);"></circle><circle r="11" class="node" id="1_3" cx="584.3333333333333" cy="283" style="fill: rgb(255, 255, 255); stroke: rgb(0, 0, 0);"></circle><circle r="11" class="node" id="1_4" cx="584.3333333333333" cy="325" style="fill: rgb(255, 255, 255); stroke: rgb(0, 0, 0);"></circle><circle r="11" class="node" id="1_5" cx="584.3333333333333" cy="367" style="fill: rgb(255, 255, 255); stroke: rgb(0, 0, 0);"></circle><circle r="11" class="node" id="2_0" cx="839.3333333333333" cy="220" style="fill: rgb(255, 255, 255); stroke: rgb(0, 0, 0);"></circle><circle r="11" class="node" id="2_1" cx="839.3333333333333" cy="262" style="fill: rgb(255, 255, 255); stroke: rgb(0, 0, 0);"></circle><circle r="11" class="node" id="2_2" cx="839.3333333333333" cy="304" style="fill: rgb(255, 255, 255); stroke: rgb(0, 0, 0);"></circle><circle r="11" class="node" id="3_0" cx="1094.3333333333333" cy="262" style="fill: rgb(255, 255, 255); stroke: rgb(0, 0, 0);"></circle><text class="text" dy=".35em" x="294.3333333333333" y="535" style="font-size: 12px;">Input Layer ∈ ℝ¹²</text><text class="text" dy=".35em" x="549.3333333333333" y="535" style="font-size: 12px;">Hidden Layer ∈ ℝ⁶</text><text class="text" dy=".35em" x="804.3333333333333" y="535" style="font-size: 12px;">Hidden Layer ∈ ℝ³</text><text class="text" dy=".35em" x="1059.3333333333333" y="535" style="font-size: 12px;">Output Layer ∈ ℝ¹</text></g><defs><marker id="arrow" viewBox="0 -5 10 10" markerWidth="7" markerHeight="7" orient="auto" refX="42.8"><path d="M0,-5L10,0L0,5" style="stroke: rgb(80, 80, 80); fill: rgb(0, 0, 0);"></path></marker></defs></svg>